<svg xmlns="http://www.w3.org/2000/svg" id="Слой_1" x="0" y="0" version="1.1" viewBox="0 0 500 340" xml:space="preserve">
  <defs/>
  <style>
    .st0{fill:#3a8ccb}
  </style>
  <path d="M183.9 224.1c-4.6 0-8.8 1.3-12.5 3.4L110.6 161V48.9c4.3-1.1 8.2-3.3 11.3-6.3l36.8 26.8c-.7 2.3-1.1 4.8-1.1 7.4 0 13.7 11.1 24.8 24.8 24.8s24.8-11.1 24.8-24.8-11-24.8-24.7-24.8c-6.4 0-12.3 2.5-16.7 6.5l-37.2-27.1c.6-2.1.9-4.3.9-6.5 0-13.7-11.1-24.8-24.8-24.8s-24.8 11-24.8 24.7c0 2.6.4 5.1 1.2 7.5L42.3 59.2C37.8 54.7 31.6 52 24.8 52 11.1 52 0 63.1 0 76.8s11.1 24.8 24.8 24.8c4.1 0 8-1 11.5-2.8L97.7 166v110.9c-4.2 1.1-8 3.3-11 6.2l-36.8-26.8c.7-2.3 1.1-4.8 1.1-7.4 0-13.7-11.1-24.8-24.8-24.8S1.4 235.2 1.4 248.9s11.1 24.8 24.8 24.8c6.4 0 12.3-2.5 16.7-6.5l37.2 27.1c-.6 2.1-.9 4.3-.9 6.5 0 13.7 11.1 24.8 24.8 24.8s24.8-11.1 24.8-24.8c0-2.6-.4-5.1-1.2-7.5l38.8-26.9c4.5 4.5 10.7 7.2 17.5 7.2 13.7 0 24.8-11.1 24.8-24.8s-11.1-24.7-24.8-24.7zm-1.4-159.2c6.5 0 11.9 5.3 11.9 11.9 0 6.5-5.3 11.9-11.9 11.9-6.5 0-11.9-5.3-11.9-11.9 0-6.6 5.3-11.9 11.9-11.9zm-77.8-52c6.5 0 11.9 5.3 11.9 11.9 0 6.5-5.3 11.9-11.9 11.9-6.5 0-11.9-5.3-11.9-11.9 0-6.5 5.3-11.9 11.9-11.9zM24.8 88.6c-6.5 0-11.9-5.3-11.9-11.9 0-6.5 5.3-11.9 11.9-11.9s11.9 5.3 11.9 11.9c0 6.6-5.4 11.9-11.9 11.9zm21 1.3c2.4-3.8 3.8-8.3 3.8-13.2 0-2.2-.3-4.3-.8-6.3l39.3-27.3c2.7 2.5 6 4.4 9.6 5.4v98.2L45.8 89.9zm116.5 146.8c-2 3.6-3.2 7.8-3.2 12.2 0 2.2.3 4.3.9 6.3l-39.3 27.3c-2.8-2.6-6.2-4.5-10-5.5v-96.8l51.6 56.5zm-136.1 24c-6.5 0-11.9-5.3-11.9-11.9 0-6.5 5.3-11.9 11.9-11.9 6.5 0 11.9 5.3 11.9 11.9 0 6.6-5.3 11.9-11.9 11.9zm77.8 52c-6.5 0-11.9-5.3-11.9-11.9 0-6.5 5.3-11.9 11.9-11.9 6.5 0 11.9 5.3 11.9 11.9 0 6.6-5.4 11.9-11.9 11.9zm79.9-52c-6.5 0-11.9-5.3-11.9-11.9 0-6.5 5.3-11.9 11.9-11.9 6.5 0 11.9 5.3 11.9 11.9-.1 6.6-5.4 11.9-11.9 11.9zM283 143.1l.9 10.2c2.5-3.7 5.6-6.6 9.3-8.6 3.7-2 8-3 12.9-3s9.2 1.1 12.7 3.3c3.5 2.2 6.2 5.5 8 9.9 2.4-4.1 5.5-7.4 9.3-9.7s8.3-3.5 13.4-3.5c7.6 0 13.6 2.7 18 8.1 4.4 5.4 6.6 13.6 6.6 24.7v45.8h-20.8v-45.8c0-6.2-1-10.5-2.9-12.9-1.9-2.4-4.7-3.6-8.5-3.6-2.9 0-5.5.7-7.7 2s-3.9 3.1-5.2 5.5c0 .9 0 1.7.1 2.3 0 .6.1 1.3.1 2v50.7h-20.7v-45.8c0-6-1-10.3-2.9-12.8s-4.8-3.7-8.6-3.7c-2.8 0-5.3.5-7.4 1.6-2.1 1.1-3.9 2.6-5.2 4.5v56.2h-20.7v-77.1H283zM386.8 180.9c0-11.5 3.2-20.9 9.6-28.3 6.4-7.3 15.3-11 26.7-11 11.4 0 20.3 3.7 26.8 11s9.7 16.7 9.7 28.3v1.5c0 11.6-3.2 21-9.7 28.3-6.4 7.3-15.3 10.9-26.7 10.9-11.4 0-20.3-3.6-26.8-10.9-6.4-7.3-9.7-16.7-9.7-28.3v-1.5zm20.7 1.5c0 7 1.2 12.7 3.7 16.9s6.5 6.4 12 6.4c5.4 0 9.3-2.1 11.8-6.4 2.5-4.3 3.7-9.9 3.7-16.9v-1.5c0-6.8-1.3-12.4-3.8-16.7s-6.5-6.5-11.9-6.5-9.3 2.2-11.8 6.5c-2.5 4.4-3.7 9.9-3.7 16.7v1.5zM494.2 220.2h-20.8V109h20.8v111.2z" class="st0"/>
  <g>
    <path d="M279.9 284.8h-1.8v-10.2h-12.6v10.2h-1.8v-22.2h1.8V273h12.6v-10.4h1.8v22.2zM295.6 284.8c-.1-.6-.2-1.1-.3-1.5-.1-.4-.1-.8-.1-1.3-.6.9-1.4 1.6-2.4 2.2-1 .6-2.2.9-3.5.9-1.6 0-2.9-.4-3.8-1.3-.9-.9-1.3-2-1.3-3.5s.6-2.7 1.9-3.6 3-1.4 5-1.4h4.1v-2c0-1.2-.4-2.1-1.1-2.8-.7-.7-1.8-1-3.2-1-1.2 0-2.3.3-3 .9-.8.6-1.2 1.4-1.2 2.3H285v-.1c-.1-1.2.5-2.3 1.6-3.3 1.1-.9 2.6-1.4 4.4-1.4 1.8 0 3.3.5 4.4 1.4 1.1.9 1.6 2.2 1.6 4v8.1c0 .6 0 1.1.1 1.7.1.5.2 1.1.3 1.6h-1.8zm-6.1-1.3c1.4 0 2.6-.3 3.6-1s1.7-1.5 2.1-2.6v-3.2h-4.1c-1.5 0-2.7.4-3.7 1.1-1 .7-1.4 1.6-1.4 2.6 0 .9.3 1.7.9 2.3.7.5 1.6.8 2.6.8zM314.5 284.8h-1.8v-7.6h-8.9v7.6H302v-16.5h1.8v7.4h8.9v-7.4h1.8v16.5zM318.3 276.3c0-2.4.7-4.4 2-6 1.3-1.6 3.1-2.3 5.3-2.3 2.2 0 4 .8 5.3 2.3s2 3.5 2 6v.5c0 2.4-.7 4.4-2 6-1.3 1.5-3.1 2.3-5.3 2.3-2.2 0-4-.8-5.3-2.3-1.3-1.5-2-3.5-2-6v-.5zm1.8.5c0 1.9.5 3.5 1.4 4.8 1 1.3 2.3 1.9 4 1.9 1.7 0 3-.7 4-1.9 1-1.3 1.5-2.9 1.5-4.8v-.5c0-1.9-.5-3.5-1.5-4.8-1-1.3-2.3-2-4-2-1.7 0-3 .7-4 2s-1.4 2.9-1.4 4.8v.5zM348.6 269.9h-6v14.9h-1.8v-14.9H335v-1.6h13.6v1.6zM358.1 285.1c-2.1 0-3.9-.8-5.2-2.3-1.3-1.5-2-3.4-2-5.8v-.8c0-2.4.7-4.3 2-5.9 1.3-1.5 3-2.3 5-2.3s3.5.6 4.6 1.9c1.1 1.3 1.6 3 1.6 5.2v1.4h-11.5v.5c0 1.9.5 3.4 1.4 4.7.9 1.2 2.3 1.9 3.9 1.9 1 0 1.9-.2 2.8-.5.8-.3 1.5-.8 2.1-1.3l.8 1.2c-.6.6-1.3 1.1-2.3 1.5-.8.4-1.9.6-3.2.6zm-.2-15.5c-1.4 0-2.6.5-3.5 1.5s-1.4 2.3-1.6 3.8v.1h9.4v-.4c0-1.5-.4-2.7-1.2-3.6-.5-.9-1.6-1.4-3.1-1.4zM373.1 275.1l4.5-6.7h2.2l-5.6 8.1 5.8 8.4h-2.1l-4.7-7-4.7 7h-2.2l5.8-8.4-5.6-8.1h2.1l4.5 6.7zM395.7 284.8h-1.8v-7.6H385v7.6h-1.8v-16.5h1.8v7.4h8.9v-7.4h1.8v16.5zM399.5 276.3c0-2.4.7-4.4 2-6 1.3-1.6 3.1-2.3 5.3-2.3 2.2 0 4 .8 5.3 2.3 1.3 1.6 2 3.5 2 6v.5c0 2.4-.7 4.4-2 6-1.3 1.5-3.1 2.3-5.3 2.3-2.2 0-4-.8-5.3-2.3-1.3-1.5-2-3.5-2-6v-.5zm1.8.5c0 1.9.5 3.5 1.4 4.8 1 1.3 2.3 1.9 4 1.9 1.7 0 3-.7 4-1.9 1-1.3 1.5-2.9 1.5-4.8v-.5c0-1.9-.5-3.5-1.5-4.8-1-1.3-2.3-2-4-2-1.7 0-3 .7-4 2s-1.4 2.9-1.4 4.8v.5zM430.2 268.3v16.5h-1.8v-14.9h-7v5.7c0 3.2-.4 5.6-1.1 7-.8 1.4-2 2.2-3.8 2.2h-.7v-1.6h.6c1.1 0 1.9-.6 2.4-1.7s.8-3.1.8-5.9v-7.3h10.6zM433.8 276.3c0-2.4.7-4.4 2-6s3.1-2.3 5.3-2.3c2.2 0 4 .8 5.3 2.3 1.3 1.6 2 3.5 2 6v.5c0 2.4-.7 4.4-2 6-1.3 1.5-3.1 2.3-5.3 2.3-2.2 0-4-.8-5.3-2.3-1.3-1.5-2-3.5-2-6v-.5zm1.8.5c0 1.9.5 3.5 1.4 4.8 1 1.3 2.3 1.9 4 1.9 1.7 0 3-.7 4-1.9 1-1.3 1.5-2.9 1.5-4.8v-.5c0-1.9-.5-3.5-1.5-4.8-1-1.3-2.3-2-4-2-1.7 0-3 .7-4 2s-1.4 2.9-1.4 4.8v.5zM462.3 269.9H454v14.9h-1.8v-16.5h10.2v1.6zM476 268.3h1.8v16.5H476v-13.4h-.1l-8.8 13.5h-1.8v-16.5h1.8v13.4h.1l8.8-13.5zM493.3 268.3h1.8v16.5h-1.8v-13.4h-.1l-8.8 13.5h-1.8v-16.5h1.8v13.4h.1l8.8-13.5zM263.1 320.7c.8 0 1.4-.8 1.9-2.3.5-1.5.8-3.8.9-6.7l.3-6h9.9v14.9h1.6v6.9h-1.8v-5.4h-12.4v5.4h-1.7v-6.9h1.3zm4.6-9c-.1 2.2-.3 4-.6 5.5s-.7 2.7-1.2 3.5h8.4v-13.2H268l-.3 4.2zM294 305.8v16.5h-1.8v-14.9h-7v5.7c0 3.2-.4 5.6-1.1 7-.8 1.4-2 2.2-3.8 2.2h-.7v-1.6h.6c1.1 0 1.9-.6 2.4-1.7s.8-3.1.8-5.9v-7.3H294zM310.9 305.8v16.5H309v-6.6h-5.1l-4 6.6h-2l4.1-6.9c-1.1-.3-2-.9-2.6-1.7-.6-.8-.9-1.8-.9-3 0-1.4.5-2.6 1.6-3.5 1-.9 2.5-1.4 4.3-1.4h6.5zm-10.6 4.9c0 .9.3 1.7.9 2.4.6.6 1.5 1 2.7 1h5.1v-6.7h-4.7c-1.4 0-2.4.3-3.1 1-.6.6-.9 1.4-.9 2.3zM333.6 307.3h-8.3v14.9h-1.8v-16.5h10.2v1.6zM347.2 305.8h1.8v16.5h-1.8v-13.4h-.1l-8.8 13.5h-1.8v-16.5h1.8v13.4h.1l8.8-13.5zM366.4 322.2h-1.8v-14.9h-8.9v14.9h-1.8v-16.5h12.5v16.5zM377.4 322.6c-2.1 0-3.9-.8-5.2-2.3-1.3-1.5-2-3.4-2-5.8v-.8c0-2.4.7-4.3 2-5.9s3-2.3 5-2.3 3.5.6 4.6 1.9c1.1 1.3 1.6 3 1.6 5.2v1.4h-11.5v.5c0 1.9.5 3.4 1.4 4.7.9 1.2 2.3 1.9 3.9 1.9 1 0 1.9-.2 2.8-.5s1.5-.8 2.1-1.3l.8 1.2c-.6.6-1.3 1.1-2.3 1.5-.7.4-1.9.6-3.2.6zm-.1-15.6c-1.4 0-2.6.5-3.5 1.5-.9 1-1.4 2.3-1.6 3.8v.1h9.4v-.4c0-1.5-.4-2.7-1.2-3.6s-1.7-1.4-3.1-1.4zM400.5 314.5c0 2.5-.6 4.4-1.7 5.9s-2.7 2.2-4.6 2.2c-1.1 0-2.2-.2-3-.7-.9-.4-1.6-1.1-2.1-1.9v8.5h-1.8v-22.8h1.4l.3 2.6c.5-.9 1.3-1.6 2.1-2.1.9-.5 1.9-.8 3.1-.8 2 0 3.5.8 4.6 2.4 1.1 1.6 1.7 3.7 1.7 6.3v.4zm-1.8-.4c0-2.1-.4-3.8-1.2-5.1-.8-1.3-2.1-2-3.7-2-1.2 0-2.2.3-3 .9-.8.6-1.3 1.3-1.7 2.3v8c.4.9 1 1.6 1.8 2.1s1.8.8 2.9.8c1.6 0 2.8-.6 3.6-1.8s1.2-2.8 1.2-4.8v-.4zM410.7 313c1.6 0 2.7-.3 3.4-.8.7-.5 1.1-1.2 1.1-2.2 0-.9-.4-1.6-1.2-2.2-.8-.6-1.9-.9-3.5-.9-1.3 0-2.5.3-3.4.9-.9.6-1.4 1.4-1.4 2.3H404v-.1c-.1-1.4.5-2.5 1.8-3.3 1.3-.9 2.8-1.3 4.7-1.3 2 0 3.6.4 4.7 1.2 1.2.8 1.7 2 1.7 3.4 0 .8-.3 1.5-.8 2.2-.6.6-1.3 1.1-2.3 1.5 1.1.3 2 .8 2.6 1.5.6.7.9 1.5.9 2.5 0 1.5-.6 2.7-1.9 3.5-1.3.9-2.9 1.3-4.9 1.3-1.9 0-3.5-.4-4.8-1.3-1.3-.8-2-2.1-1.9-3.6v-.1h1.7c0 1 .5 1.8 1.4 2.5.9.7 2.1 1 3.6 1s2.7-.3 3.6-.9c.9-.6 1.3-1.4 1.3-2.4 0-1.1-.4-1.9-1.2-2.4-.8-.5-2-.8-3.6-.8h-2.8V313h2.9zM432 322.2c-.1-.6-.2-1.1-.3-1.5-.1-.4-.1-.8-.1-1.3-.6.9-1.4 1.6-2.4 2.2-1 .6-2.2.9-3.5.9-1.6 0-2.9-.4-3.8-1.3-.9-.9-1.3-2-1.3-3.5s.6-2.7 1.9-3.6c1.3-.9 3-1.4 5-1.4h4.1v-2c0-1.2-.4-2.1-1.1-2.8-.7-.7-1.8-1-3.2-1-1.2 0-2.3.3-3 .9-.8.6-1.2 1.4-1.2 2.3h-1.7v-.1c-.1-1.2.5-2.3 1.6-3.3 1.1-.9 2.6-1.4 4.4-1.4 1.8 0 3.3.5 4.4 1.4 1.1.9 1.6 2.2 1.6 4v8.1c0 .6 0 1.1.1 1.7.1.5.2 1.1.3 1.6H432zm-6.1-1.3c1.4 0 2.6-.3 3.6-1s1.7-1.5 2.1-2.6v-3.2h-4.1c-1.5 0-2.7.4-3.7 1.1-1 .7-1.4 1.6-1.4 2.6 0 .9.3 1.7.9 2.3.7.6 1.5.8 2.6.8zM438.2 320.7c.8 0 1.4-.8 1.9-2.3s.8-3.8.9-6.7l.3-6h9.9v14.9h1.6v6.9H451v-5.4h-12.4v5.4h-1.7v-6.9h1.3zm4.7-9c-.1 2.2-.3 4-.6 5.5s-.7 2.7-1.2 3.5h8.4v-13.2h-6.3l-.3 4.2zM467 322.2c-.1-.6-.2-1.1-.3-1.5-.1-.4-.1-.8-.1-1.3-.6.9-1.4 1.6-2.4 2.2-1 .6-2.2.9-3.5.9-1.6 0-2.9-.4-3.8-1.3-.9-.9-1.3-2-1.3-3.5s.6-2.7 1.9-3.6c1.3-.9 3-1.4 5-1.4h4.1v-2c0-1.2-.4-2.1-1.1-2.8-.7-.7-1.8-1-3.2-1-1.2 0-2.3.3-3 .9-.8.6-1.2 1.4-1.2 2.3h-1.7v-.1c-.1-1.2.5-2.3 1.6-3.3 1.1-.9 2.6-1.4 4.4-1.4s3.3.5 4.4 1.4c1.1.9 1.6 2.2 1.6 4v8.1c0 .6 0 1.1.1 1.7.1.5.2 1.1.3 1.6H467zm-6.1-1.3c1.4 0 2.6-.3 3.6-1s1.7-1.5 2.1-2.6v-3.2h-4.1c-1.5 0-2.7.4-3.7 1.1-1 .7-1.4 1.6-1.4 2.6 0 .9.3 1.7.9 2.3.7.6 1.6.8 2.6.8zM485.7 322.2h-1.8v-6.9c-.7.3-1.4.5-2.2.6-.7.1-1.4.2-2.1.2-2.1 0-3.7-.5-4.8-1.4-1-.9-1.6-2.5-1.6-4.8v-4.2h1.8v4.2c0 1.7.4 2.9 1.1 3.6.7.7 1.8 1 3.4 1 .7 0 1.5-.1 2.2-.2s1.4-.3 2.1-.6v-8h1.8v16.5z"/>
  </g>
</svg>
